<svg xmlns="http://www.w3.org/2000/svg" viewBox="0 0 220 220" width="220" height="220" role="img" aria-label="nebula">
<defs>
  <radialGradient id="field" cx="42%" cy="36%" r="78%">
    <stop offset="0" stop-color="#22b2bf"></stop><stop offset="52%" stop-color="#0d839a"></stop><stop offset="100%" stop-color="#073f54"></stop>
  </radialGradient>
  <linearGradient id="rim" x1="0" y1="0" x2="1" y2="1">
    <stop offset="0" stop-color="#e3e7ec"></stop><stop offset="0.5" stop-color="#9aa1ab"></stop><stop offset="1" stop-color="#565c66"></stop>
  </linearGradient>
  <radialGradient id="gold" cx="40%" cy="35%" r="70%"><stop offset="0" stop-color="#fff0bf"></stop><stop offset="55%" stop-color="#f5b733"></stop><stop offset="100%" stop-color="#c47d12"></stop></radialGradient>
  <radialGradient id="silver" cx="40%" cy="35%" r="72%"><stop offset="0" stop-color="#ffffff"></stop><stop offset="55%" stop-color="#d6e4f2"></stop><stop offset="100%" stop-color="#8ea4c2"></stop></radialGradient>
  <radialGradient id="ember" cx="42%" cy="38%" r="70%"><stop offset="0" stop-color="#fff2c4"></stop><stop offset="50%" stop-color="#f59324"></stop><stop offset="100%" stop-color="#b03c0a"></stop></radialGradient>
  <radialGradient id="glow" cx="50%" cy="50%" r="60%"><stop offset="0" stop-color="#fffbe9"></stop><stop offset="100%" stop-color="#f3c64a"></stop></radialGradient>
  <clipPath id="disc"><circle cx="110" cy="110" r="79"></circle></clipPath>
  <clipPath id="satTop"><rect x="30" y="30" width="160" height="82"></rect></clipPath><clipPath id="satBot"><rect x="30" y="110" width="160" height="84"></rect></clipPath></defs>
<circle cx="110" cy="110" r="104" fill="url(#rim)"></circle><circle cx="110" cy="110" r="104" fill="none" stroke="#0b0b0d" stroke-width="3"></circle><circle cx="110" cy="110" r="98" fill="none" stroke="#0b0b0d" stroke-width="2"></circle><circle cx="110" cy="110" r="96" fill="#0b0b0d"></circle><path d="M206.5,110 L198,102.5 L189.5,110 L198,117.5 Z" fill="#f4b740" stroke="#0b0b0d" stroke-width="2" stroke-linejoin="round" stroke-linecap="round"></path><circle cx="195" cy="132.78" r="3.6" fill="#fff4e2" stroke="#0b0b0d" stroke-width="1.8"></circle><path d="M193.57,158.25 L189.96,147.5 L178.85,149.75 L182.46,160.5 Z" fill="#fff4e2" stroke="#0b0b0d" stroke-width="2" stroke-linejoin="round" stroke-linecap="round"></path><circle cx="172.23" cy="172.23" r="3.6" fill="#fff4e2" stroke="#0b0b0d" stroke-width="1.8"></circle><path d="M158.25,193.57 L160.5,182.46 L149.75,178.85 L147.5,189.96 Z" fill="#f4b740" stroke="#0b0b0d" stroke-width="2" stroke-linejoin="round" stroke-linecap="round"></path><circle cx="132.78" cy="195" r="3.6" fill="#fff4e2" stroke="#0b0b0d" stroke-width="1.8"></circle><path d="M110,206.5 L117.5,198 L110,189.5 L102.5,198 Z" fill="#fff4e2" stroke="#0b0b0d" stroke-width="2" stroke-linejoin="round" stroke-linecap="round"></path><circle cx="87.22" cy="195" r="3.6" fill="#fff4e2" stroke="#0b0b0d" stroke-width="1.8"></circle><path d="M61.75,193.57 L72.5,189.96 L70.25,178.85 L59.5,182.46 Z" fill="#f4b740" stroke="#0b0b0d" stroke-width="2" stroke-linejoin="round" stroke-linecap="round"></path><circle cx="47.77" cy="172.23" r="3.6" fill="#fff4e2" stroke="#0b0b0d" stroke-width="1.8"></circle><path d="M26.43,158.25 L37.54,160.5 L41.15,149.75 L30.04,147.5 Z" fill="#fff4e2" stroke="#0b0b0d" stroke-width="2" stroke-linejoin="round" stroke-linecap="round"></path><circle cx="25" cy="132.78" r="3.6" fill="#fff4e2" stroke="#0b0b0d" stroke-width="1.8"></circle><path d="M13.5,110 L22,117.5 L30.5,110 L22,102.5 Z" fill="#f4b740" stroke="#0b0b0d" stroke-width="2" stroke-linejoin="round" stroke-linecap="round"></path><circle cx="25" cy="87.22" r="3.6" fill="#fff4e2" stroke="#0b0b0d" stroke-width="1.8"></circle><path d="M26.43,61.75 L30.04,72.5 L41.15,70.25 L37.54,59.5 Z" fill="#fff4e2" stroke="#0b0b0d" stroke-width="2" stroke-linejoin="round" stroke-linecap="round"></path><circle cx="47.77" cy="47.77" r="3.6" fill="#fff4e2" stroke="#0b0b0d" stroke-width="1.8"></circle><path d="M61.75,26.43 L59.5,37.54 L70.25,41.15 L72.5,30.04 Z" fill="#f4b740" stroke="#0b0b0d" stroke-width="2" stroke-linejoin="round" stroke-linecap="round"></path><circle cx="87.22" cy="25" r="3.6" fill="#fff4e2" stroke="#0b0b0d" stroke-width="1.8"></circle><path d="M110,13.5 L102.5,22 L110,30.5 L117.5,22 Z" fill="#fff4e2" stroke="#0b0b0d" stroke-width="2" stroke-linejoin="round" stroke-linecap="round"></path><circle cx="132.78" cy="25" r="3.6" fill="#fff4e2" stroke="#0b0b0d" stroke-width="1.8"></circle><path d="M158.25,26.43 L147.5,30.04 L149.75,41.15 L160.5,37.54 Z" fill="#f4b740" stroke="#0b0b0d" stroke-width="2" stroke-linejoin="round" stroke-linecap="round"></path><circle cx="172.23" cy="47.77" r="3.6" fill="#fff4e2" stroke="#0b0b0d" stroke-width="1.8"></circle><path d="M193.57,61.75 L182.46,59.5 L178.85,70.25 L189.96,72.5 Z" fill="#fff4e2" stroke="#0b0b0d" stroke-width="2" stroke-linejoin="round" stroke-linecap="round"></path><circle cx="195" cy="87.22" r="3.6" fill="#fff4e2" stroke="#0b0b0d" stroke-width="1.8"></circle><circle cx="110" cy="110" r="79.5" fill="none" stroke="#0b0b0d" stroke-width="3"></circle>
<circle cx="110" cy="110" r="79" fill="url(#field)"></circle><g clip-path="url(#disc)" opacity="0.14"><path d="M40,60 L70,40 L120,150 L90,170 Z" fill="#ffffff"></path><path d="M130,46 L150,58 L96,176 L78,168 Z" fill="#ffffff"></path></g>
<g clip-path="url(#disc)">
<path d="M60,146.6 L60.82,149.18 L63.4,150 L60.82,150.82 L60,153.4 L59.18,150.82 L56.6,150 L59.18,149.18Z" fill="url(#gold)" stroke="#0b0b0d" stroke-width="1.4" stroke-linejoin="round" stroke-linecap="round"></path><path d="M156,146.6 L156.82,149.18 L159.4,150 L156.82,150.82 L156,153.4 L155.18,150.82 L152.6,150 L155.18,149.18Z" fill="url(#gold)" stroke="#0b0b0d" stroke-width="1.4" stroke-linejoin="round" stroke-linecap="round"></path><path d="M150,59 L150.72,61.28 L153,62 L150.72,62.72 L150,65 L149.28,62.72 L147,62 L149.28,61.28Z" fill="url(#gold)" stroke="#0b0b0d" stroke-width="1.4" stroke-linejoin="round" stroke-linecap="round"></path><circle cx="104" cy="112" r="34" fill="#6b3fb0" stroke="#0b0b0d" stroke-width="2.4"></circle><circle cx="130" cy="96" r="23" fill="#b14a9e" stroke="#0b0b0d" stroke-width="2.4"></circle><circle cx="88" cy="128" r="21" fill="#3f6fd0" stroke="#0b0b0d" stroke-width="2.4"></circle><circle cx="134" cy="128" r="17" fill="#8a4fc6" stroke="#0b0b0d" stroke-width="2.4"></circle><circle cx="108" cy="86" r="17" fill="#c85a86" stroke="#0b0b0d" stroke-width="2.4"></circle><path d="M110,102 L111.53,106.47 L116,108 L111.53,109.53 L110,114 L108.47,109.53 L104,108 L108.47,106.47Z" fill="url(#glow)" stroke="#0b0b0d" stroke-width="1.4" stroke-linejoin="round" stroke-linecap="round"></path><path d="M92,94 L93.02,96.98 L96,98 L93.02,99.02 L92,102 L90.98,99.02 L88,98 L90.98,96.98Z" fill="url(#glow)" stroke="#0b0b0d" stroke-width="1.4" stroke-linejoin="round" stroke-linecap="round"></path><path d="M128,115.5 L129.15,118.85 L132.5,120 L129.15,121.15 L128,124.5 L126.85,121.15 L123.5,120 L126.85,118.85Z" fill="url(#glow)" stroke="#0b0b0d" stroke-width="1.4" stroke-linejoin="round" stroke-linecap="round"></path><path d="M114,130 L115.02,132.98 L118,134 L115.02,135.02 L114,138 L112.98,135.02 L110,134 L112.98,132.98Z" fill="url(#glow)" stroke="#0b0b0d" stroke-width="1.4" stroke-linejoin="round" stroke-linecap="round"></path><ellipse cx="96" cy="100" rx="8" ry="6" fill="#ffffff" opacity="0.28"></ellipse>
</g>
<circle cx="110" cy="110" r="79" fill="none" stroke="#0b0b0d" stroke-width="2.4"></circle>
</svg>